<?xml version="1.0" encoding="UTF-8"?>
<svg xmlns="http://www.w3.org/2000/svg" viewBox="-4 -2 56 54" width="256" height="256" role="img" aria-label="公立はこだて未来大学">
  <path d="M44.728,28.943A7.07,7.07,0,1,0,40.6,16.138h0c-.042.031-.085.061-.126.092a3.294,3.294,0,0,1-4.025.234c-.636-.348-1.111-1.824-.912-3.294.07-.263.129-.53.179-.8,0-.009,0-.018.008-.027h0a10.464,10.464,0,1,0-15,7.465,4.98,4.98,0,0,1,2.441,4.282,4.608,4.608,0,0,1-4.494,4.257c-3.784,0-4.553-4.671-4.553-4.671l-.069.085A7.1,7.1,0,1,0,7.1,32.32c5.83,0,7.249,4.484,3.82,7.973l0,0A5.535,5.535,0,1,0,19.6,46.848l.01.008c1.419-3.725,6.09-4.08,8.337-.355l.106-.056A9.093,9.093,0,1,0,42.91,36.561c-1.068-1.157-2.2-2.706-1.427-5.078a3.553,3.553,0,0,1,3.245-2.539" fill="#9d2126"/>
</svg>
